<svg aria-hidden="true" style="position: absolute; width: 0; height: 0; overflow: hidden;" version="1.1" xmlns="http://www.w3.org/2000/svg" xmlns:xlink="http://www.w3.org/1999/xlink">
<defs>
<symbol id="icon-help-circle" viewBox="0 0 24 24">
<path d="M23 12c0-3.037-1.232-5.789-3.222-7.778s-4.741-3.222-7.778-3.222-5.789 1.232-7.778 3.222-3.222 4.741-3.222 7.778 1.232 5.789 3.222 7.778 4.741 3.222 7.778 3.222 5.789-1.232 7.778-3.222 3.222-4.741 3.222-7.778zM21 12c0 2.486-1.006 4.734-2.636 6.364s-3.878 2.636-6.364 2.636-4.734-1.006-6.364-2.636-2.636-3.878-2.636-6.364 1.006-4.734 2.636-6.364 3.878-2.636 6.364-2.636 4.734 1.006 6.364 2.636 2.636 3.878 2.636 6.364zM10.033 9.332c0.183-0.521 0.559-0.918 1.022-1.14s1.007-0.267 1.528-0.083c0.458 0.161 0.819 0.47 1.050 0.859 0.183 0.307 0.284 0.665 0.286 1.037 0 0.155-0.039 0.309-0.117 0.464-0.080 0.16-0.203 0.325-0.368 0.49-0.709 0.709-1.831 1.092-1.831 1.092-0.524 0.175-0.807 0.741-0.632 1.265s0.741 0.807 1.265 0.632c0 0 1.544-0.506 2.613-1.575 0.279-0.279 0.545-0.614 0.743-1.010 0.2-0.4 0.328-0.858 0.328-1.369-0.004-0.731-0.204-1.437-0.567-2.049-0.463-0.778-1.19-1.402-2.105-1.724-1.042-0.366-2.135-0.275-3.057 0.167s-1.678 1.238-2.044 2.28c-0.184 0.521 0.090 1.092 0.611 1.275s1.092-0.091 1.275-0.611zM12 18c0.552 0 1-0.448 1-1s-0.448-1-1-1-1 0.448-1 1 0.448 1 1 1z"></path>
</symbol>
<symbol id="icon-child" viewBox="0 0 20 28">
<path d="M18.562 8.563l-4.562 4.562v12.875c0 0.969-0.781 1.75-1.75 1.75s-1.75-0.781-1.75-1.75v-6h-1v6c0 0.969-0.781 1.75-1.75 1.75s-1.75-0.781-1.75-1.75v-12.875l-4.562-4.562c-0.578-0.594-0.578-1.531 0-2.125 0.594-0.578 1.531-0.578 2.125 0l3.563 3.563h5.75l3.563-3.563c0.594-0.578 1.531-0.578 2.125 0 0.578 0.594 0.578 1.531 0 2.125zM13.5 6c0 1.937-1.563 3.5-3.5 3.5s-3.5-1.563-3.5-3.5 1.563-3.5 3.5-3.5 3.5 1.563 3.5 3.5z"></path>
</symbol>
<symbol id="icon-user-solid-circle" viewBox="0 0 20 20">
<path d="M10 20c-5.523 0-10-4.477-10-10s4.477-10 10-10v0c5.523 0 10 4.477 10 10s-4.477 10-10 10v0zM7 6v2c0 1.657 1.343 3 3 3s3-1.343 3-3v0-2c0-1.657-1.343-3-3-3s-3 1.343-3 3v0zM3.35 14.44c1.456 2.155 3.89 3.553 6.65 3.553s5.194-1.398 6.632-3.525l0.018-0.028c-1.951-0.918-4.238-1.453-6.65-1.453s-4.699 0.536-6.748 1.495l0.098-0.041z"></path>
</symbol>
<symbol id="icon-aircraft-take-off" viewBox="0 0 20 20">
<path d="M19.87 6.453c0.119 0.257 0.127 1.29-4.884 3.642l-4.913 2.306c-1.71 0.803-4.191 1.859-5.285 2.151-0.766 0.204-1.497-0.316-1.497-0.316s-2.206-1.975-2.792-2.419c-0.585-0.444-0.535-0.67 0.215-0.91 0.467-0.149 3.13 0.493 4.265 0.78 1.339-0.8 2.562-1.486 3.141-1.798-1.396-1.033-4.008-2.962-4.841-3.55-0.799-0.565 0.010-0.768 0.010-0.768 0.368-0.099 1.162-0.228 1.562-0.144 2.721 0.569 7.263 2.071 7.611 2.186 0.832-0.436 2.128-1.092 2.922-1.465 2.075-0.974 4.327-0.037 4.486 0.305z"></path>
</symbol>
<symbol id="icon-magnifying-glass" viewBox="0 0 20 20">
<path d="M17.545 15.467l-3.779-3.779c0.57-0.935 0.898-2.035 0.898-3.21 0-3.417-2.961-6.377-6.378-6.377s-6.186 2.769-6.186 6.186c0 3.416 2.961 6.377 6.377 6.377 1.137 0 2.2-0.309 3.115-0.844l3.799 3.801c0.372 0.371 0.975 0.371 1.346 0l0.943-0.943c0.371-0.371 0.236-0.84-0.135-1.211zM4.004 8.287c0-2.366 1.917-4.283 4.282-4.283s4.474 2.107 4.474 4.474c0 2.365-1.918 4.283-4.283 4.283s-4.473-2.109-4.473-4.474z"></path>
</symbol>
<symbol id="icon-shopping-bag" viewBox="0 0 20 20">
<path d="M18.121 3.271c-0.295-0.256-1.906-1.731-2.207-1.991-0.299-0.259-0.756-0.28-1.102-0.28h-9.624c-0.345 0-0.802 0.021-1.102 0.28s-1.912 1.736-2.207 1.991c-0.297 0.256-0.543 0.643-0.464 1.192 0.079 0.551 1.89 13.661 1.937 13.973 0.046 0.311 0.318 0.557 0.648 0.564h12c0.33-0.007 0.602-0.253 0.648-0.565s1.858-13.422 1.938-13.973c0.078-0.548-0.168-0.935-0.465-1.191zM10 11.973c-3.248 0-3.943-4.596-4.087-5.543h1.837c0.276 1.381 0.904 3.744 2.25 3.744s1.975-2.363 2.25-3.744h1.838c-0.145 0.947-0.84 5.543-4.088 5.543zM3.17 4.006l1.83-2.006h10l1.83 2.006h-13.66z"></path>
</symbol>
<symbol id="icon-man" viewBox="0 0 32 32">
<path d="M18 3c0 1.657-1.343 3-3 3s-3-1.343-3-3c0-1.657 1.343-3 3-3s3 1.343 3 3z"></path>
<path d="M18 8h-6c-1.105 0-2 0.895-2 2v10h2v12h2.5v-12h1v12h2.5v-12h2v-10c0-1.105-0.895-2-2-2z"></path>
</symbol>
<symbol id="icon-woman" viewBox="0 0 32 32">
<path d="M18 3c0 1.657-1.343 3-3 3s-3-1.343-3-3c0-1.657 1.343-3 3-3s3 1.343 3 3z"></path>
<path d="M22.469 16l1.531-1.109-4.165-6.441c-0.185-0.281-0.499-0.45-0.835-0.45h-8c-0.336 0-0.65 0.169-0.835 0.45l-4.165 6.441 1.531 1.109 3.458-4.487 1.202 2.804-4.191 7.683h3.833l0.667 10h2v-10h1v10h2l0.667-10h3.833l-4.191-7.683 1.202-2.804 3.458 4.487z"></path>
</symbol>
</defs>
</svg>
